<?xml version="1.0" encoding="UTF-8"?>
<svg id="Layer_1" data-name="Layer 1" xmlns="http://www.w3.org/2000/svg" xmlns:xlink="http://www.w3.org/1999/xlink" viewBox="0 0 1015.97 1120.42">
  <defs>
    <style>
      .cls-1 {
        fill: none;
      }

      .cls-1, .cls-2 {
        stroke-width: 0px;
      }

      .cls-3 {
        clip-path: url(#clippath-1);
      }

      .cls-4 {
        clip-path: url(#clippath);
      }

      .cls-2 {
        fill: #fff;
      }
    </style>
    <clipPath id="clippath">
      <rect class="cls-1" width="1015.97" height="1120.42"/>
    </clipPath>
    <clipPath id="clippath-1">
      <rect class="cls-1" y="0" width="1015.97" height="1120.42"/>
    </clipPath>
  </defs>
  <g id="EHL_White" data-name="EHL White">
    <g class="cls-4">
      <path class="cls-2" d="M163.27,297.04l353.77-207.56,334.19,219.38,1.47,399.39H164.78l-1.51-411.2ZM516.47,0L0,308.5v116.97h78.64l-.7,370.19,854.58.29.64-371.7h82.8v-116.75L516.47,0Z"/>
      <rect class="cls-2" x="337.13" y="498.34" width="341.79" height="90.93"/>
      <rect class="cls-2" x="337.13" y="360.88" width="341.79" height="91"/>
      <polygon class="cls-2" points="121.9 939.72 63.38 939.72 63.38 860.49 121.02 860.49 121.02 870.03 74.03 870.03 74.03 894.26 117.39 894.26 117.39 903.74 74.03 903.74 74.03 930.18 121.9 930.18 121.9 939.72"/>
      <g class="cls-3">
        <path class="cls-2" d="M173.91,923.39l8.14,6.45c-3.21,1.58-7.26,2.51-11.58,2.51-17.27,0-27.62-13.58-27.62-32.19s10.35-32.13,27.62-32.13,27.5,13.4,27.5,32.13c0,10.12-3.1,18.89-8.66,24.46l-10.19-7.79-5.21,6.55ZM208.38,939.49l-10.82-8.36c8.36-8.49,11.52-20.96,11.52-30.96,0-17.09-9.06-41.78-38.61-41.78s-38.69,24.69-38.69,41.78,9.07,41.6,38.69,41.6c8.36,0,15.14-1.93,20.3-5.21l12.22,9.42,5.39-6.49Z"/>
        <path class="cls-2" d="M283.34,860.49v51.44c0,16.2-10.18,29.84-31.95,29.84s-30.43-13.64-30.43-28.32v-52.96h10.64v49.92c0,17.32,10.48,21.95,20.19,21.95s20.83-4.56,20.83-21.71v-50.15h10.71Z"/>
        <path class="cls-2" d="M311.72,907.19l12.59-34.87h.28l11.65,34.87h-24.52ZM340.1,916.72l7.78,23h11.76l-28.61-79.23h-12.23l-29.72,79.23h10.99l8.32-23h31.71Z"/>
        <polygon class="cls-2" points="380.19 930.19 420.33 930.19 420.33 939.72 369.48 939.72 369.48 860.48 380.19 860.48 380.19 930.19"/>
        <polygon class="cls-2" points="513.71 860.49 524.37 860.49 524.37 939.72 513.71 939.72 513.71 902.85 472.29 902.85 472.29 939.72 461.59 939.72 461.59 860.49 472.29 860.49 472.29 893.26 513.71 893.26 513.71 860.49"/>
        <path class="cls-2" d="M603.37,900.16c0,18.6-10.43,32.19-27.62,32.19s-27.62-13.58-27.62-32.19,10.36-32.13,27.62-32.13,27.62,13.4,27.62,32.13M614.32,900.16c0-17.09-9.02-41.78-38.57-41.78s-38.69,24.69-38.69,41.78,9.14,41.6,38.69,41.6,38.57-24.51,38.57-41.6"/>
        <path class="cls-2" d="M689.79,860.49v51.44c0,16.2-10.17,29.84-31.95,29.84s-30.43-13.64-30.43-28.32v-52.96h10.53v49.92c0,17.32,10.6,21.95,20.13,21.95s20.83-4.56,20.83-21.71v-50.15h10.88Z"/>
        <path class="cls-2" d="M754.51,883.66c-.59-12.23-10.77-16.09-19.66-16.09-6.79,0-18.2,1.93-18.2,13.87,0,6.79,4.85,8.95,9.42,10.07l22.64,5.21c10.25,2.45,18.02,8.66,18.02,21.18,0,18.72-17.38,23.87-31.01,23.87-14.69,0-20.43-4.32-23.99-7.49-6.74-6.14-7.96-12.69-7.96-20.12h10.01c0,14.33,11.7,18.54,21.81,18.54,7.73,0,20.72-2,20.72-13.34,0-8.38-3.92-11.06-16.91-13.99l-16.21-3.87c-5.14-1.05-16.91-4.79-16.91-18.6,0-12.3,8.13-24.52,27.27-24.52,27.74,0,30.55,16.62,30.96,25.27h-10.01Z"/>
        <rect class="cls-2" x="781.91" y="860.49" width="10.64" height="79.23"/>
        <polygon class="cls-2" points="863.47 860.49 873.9 860.49 873.9 939.72 861.83 939.72 821.58 875.76 821.34 875.76 821.34 939.72 810.99 939.72 810.99 860.49 823.69 860.49 863.19 924.51 863.47 924.51 863.47 860.49"/>
        <path class="cls-2" d="M925.21,897.41h34.75v42.31h-7.01l-2.53-10.18c-5.43,7.48-15.33,12.23-26.15,12.23-13.52,0-20.25-4.91-24.21-8.78-12.23-11.52-12.54-25.1-12.54-33.53,0-19.31,11.76-41.08,37.45-41.08,14.87,0,31.32,8.49,33.59,26.15h-10.36c-3.39-13.69-15.04-16.49-23.64-16.49-14.34,0-26.04,11.28-26.04,32,0,16.09,5.32,32.65,26.4,32.65,3.97,0,10.46-.41,16.32-4.97,6.83-5.63,8.65-12.71,8.65-21.18h-24.69v-9.13Z"/>
        <polygon class="cls-2" points="62.33 1120.42 62.33 972.08 110.83 972.08 110.83 1085.85 177.6 1085.85 177.6 1120.42 62.33 1120.42"/>
        <polygon class="cls-2" points="199.61 1120.42 199.61 972.08 320.5 972.08 320.5 1006.71 248.23 1006.71 248.23 1027.96 309.27 1027.96 309.27 1062.48 248.23 1062.48 248.23 1085.85 323.31 1085.85 323.31 1120.42 199.61 1120.42"/>
        <polygon class="cls-2" points="445.2 1053.06 443.27 1019.37 443.27 972.08 489.79 972.08 489.79 1120.42 444.32 1120.42 391.41 1039.72 393.35 1073.37 393.35 1120.42 346.78 1120.42 346.78 972.08 392.3 972.08 445.2 1053.06"/>
        <path class="cls-2" d="M565.98,1006.71h9.24c25.93,0,36.11,8.25,36.11,39.11,0,27.96-12.35,40.03-35.05,40.03h-10.3v-79.14ZM581.24,1120.42c47.53,0,78.6-21.46,78.6-77.3,0-48.74-29.61-71.03-77.37-71.03h-65.07v148.33h63.84Z"/>
        <polygon class="cls-2" points="679.79 1120.42 679.79 972.08 800.63 972.08 800.63 1006.71 728.42 1006.71 728.42 1027.96 789.62 1027.96 789.62 1062.48 728.42 1062.48 728.42 1085.85 803.67 1085.85 803.67 1120.42 679.79 1120.42"/>
        <path class="cls-2" d="M874.01,1006.72h22.58c11.35,0,19.49,4.92,19.49,15.52s-7.9,13.87-22.94,13.87h-19.13v-29.39ZM888.81,1068.7c22.59,0,25.93,6.49,25.93,25.8,0,13.1,1.16,22.52,2.4,25.92h49.26v-4.67c-5.74,0-5.21-6.56-5.21-25.8,0-29.86-9.42-33.49-25.05-39.29,17.26-4.84,24.87-19.24,24.87-36.21,0-28.9-16.2-42.36-65.53-42.36h-70.11v148.33h48.63v-51.72h14.8Z"/>
      </g>
    </g>
  </g>
</svg>