<?xml version="1.0" encoding="UTF-8"?>
<svg id="Layer_1" data-name="Layer 1" xmlns="http://www.w3.org/2000/svg" xmlns:xlink="http://www.w3.org/1999/xlink" viewBox="0 0 90.12 99.39">
  <defs>
    <style>
      .cls-1 {
        fill: none;
      }

      .cls-1, .cls-2 {
        stroke-width: 0px;
      }

      .cls-3 {
        clip-path: url(#clippath-1);
      }

      .cls-4 {
        clip-path: url(#clippath);
      }

      .cls-2 {
        fill: #fff;
      }
    </style>
    <clipPath id="clippath">
      <rect class="cls-1" width="90.12" height="99.39"/>
    </clipPath>
    <clipPath id="clippath-1">
      <rect class="cls-1" y="0" width="90.12" height="99.39"/>
    </clipPath>
  </defs>
  <g id="EHL_EPS" data-name="EHL EPS">
    <g class="cls-4">
      <path class="cls-2" d="M14.48,26.35L45.86,7.94l29.65,19.46.13,35.43H14.62l-.13-36.48ZM45.81,0L0,27.37v10.38h6.98l-.06,32.84,75.81.03.06-32.97h7.35v-10.36L45.81,0Z"/>
      <rect class="cls-2" x="29.9" y="44.21" width="30.32" height="8.07"/>
      <rect class="cls-2" x="29.9" y="32.01" width="30.32" height="8.07"/>
      <polygon class="cls-2" points="10.81 83.36 5.62 83.36 5.62 76.33 10.73 76.33 10.73 77.18 6.57 77.18 6.57 79.33 10.41 79.33 10.41 80.17 6.57 80.17 6.57 82.51 10.81 82.51 10.81 83.36"/>
      <g class="cls-3">
        <path class="cls-2" d="M15.43,81.91l.72.57c-.28.14-.64.22-1.03.22-1.53,0-2.45-1.2-2.45-2.85s.92-2.85,2.45-2.85,2.44,1.19,2.44,2.85c0,.9-.27,1.68-.77,2.17l-.9-.69-.46.58ZM18.48,83.34l-.96-.74c.74-.75,1.02-1.86,1.02-2.75,0-1.52-.8-3.71-3.42-3.71s-3.43,2.19-3.43,3.71.81,3.69,3.43,3.69c.74,0,1.34-.17,1.8-.46l1.08.84.48-.58Z"/>
        <path class="cls-2" d="M25.13,76.33v4.56c0,1.44-.9,2.65-2.83,2.65s-2.7-1.21-2.7-2.51v-4.7h.94v4.43c0,1.54.93,1.95,1.79,1.95s1.85-.4,1.85-1.93v-4.45h.95Z"/>
        <path class="cls-2" d="M27.65,80.47l1.12-3.09h.02l1.03,3.09h-2.18ZM30.17,81.32l.69,2.04h1.04l-2.54-7.03h-1.09l-2.64,7.03h.98l.74-2.04h2.81Z"/>
        <polygon class="cls-2" points="33.72 82.51 37.29 82.51 37.29 83.36 32.77 83.36 32.77 76.33 33.72 76.33 33.72 82.51"/>
        <polygon class="cls-2" points="45.57 76.33 46.51 76.33 46.51 83.36 45.57 83.36 45.57 80.09 41.89 80.09 41.89 83.36 40.95 83.36 40.95 76.33 41.89 76.33 41.89 79.24 45.57 79.24 45.57 76.33"/>
        <path class="cls-2" d="M53.52,79.85c0,1.65-.93,2.86-2.45,2.86s-2.45-1.2-2.45-2.86.92-2.85,2.45-2.85,2.45,1.19,2.45,2.85M54.49,79.85c0-1.52-.8-3.71-3.42-3.71s-3.43,2.19-3.43,3.71.81,3.69,3.43,3.69,3.42-2.17,3.42-3.69"/>
        <path class="cls-2" d="M61.19,76.33v4.56c0,1.44-.9,2.65-2.83,2.65s-2.7-1.21-2.7-2.51v-4.7h.93v4.43c0,1.54.94,1.95,1.79,1.95s1.85-.4,1.85-1.93v-4.45h.97Z"/>
        <path class="cls-2" d="M66.93,78.39c-.05-1.08-.96-1.43-1.74-1.43-.6,0-1.61.17-1.61,1.23,0,.6.43.79.84.89l2.01.46c.91.22,1.6.77,1.6,1.88,0,1.66-1.54,2.12-2.75,2.12-1.3,0-1.81-.38-2.13-.66-.6-.54-.71-1.13-.71-1.78h.89c0,1.27,1.04,1.65,1.94,1.65.69,0,1.84-.18,1.84-1.18,0-.74-.35-.98-1.5-1.24l-1.44-.34c-.46-.09-1.5-.42-1.5-1.65,0-1.09.72-2.17,2.42-2.17,2.46,0,2.71,1.47,2.75,2.24h-.89Z"/>
        <rect class="cls-2" x="69.36" y="76.33" width=".94" height="7.03"/>
        <polygon class="cls-2" points="76.59 76.33 77.52 76.33 77.52 83.36 76.45 83.36 72.88 77.69 72.86 77.69 72.86 83.36 71.94 83.36 71.94 76.33 73.07 76.33 76.57 82.01 76.59 82.01 76.59 76.33"/>
        <path class="cls-2" d="M82.07,79.61h3.08v3.75h-.62l-.22-.9c-.48.66-1.36,1.09-2.32,1.09-1.2,0-1.8-.44-2.15-.78-1.08-1.02-1.11-2.23-1.11-2.97,0-1.71,1.04-3.64,3.32-3.64,1.32,0,2.78.75,2.98,2.32h-.92c-.3-1.21-1.33-1.46-2.1-1.46-1.27,0-2.31,1-2.31,2.84,0,1.43.47,2.9,2.34,2.9.35,0,.93-.04,1.45-.44.61-.5.77-1.13.77-1.88h-2.19v-.81Z"/>
        <polygon class="cls-2" points="5.53 99.39 5.53 86.23 9.83 86.23 9.83 96.32 15.75 96.32 15.75 99.39 5.53 99.39"/>
        <polygon class="cls-2" points="17.71 99.39 17.71 86.23 28.43 86.23 28.43 89.3 22.02 89.3 22.02 91.19 27.43 91.19 27.43 94.25 22.02 94.25 22.02 96.32 28.68 96.32 28.68 99.39 17.71 99.39"/>
        <polygon class="cls-2" points="39.49 93.41 39.32 90.42 39.32 86.23 43.45 86.23 43.45 99.39 39.41 99.39 34.72 92.23 34.89 95.21 34.89 99.39 30.76 99.39 30.76 86.23 34.8 86.23 39.49 93.41"/>
        <path class="cls-2" d="M50.21,89.3h.82c2.3,0,3.2.73,3.2,3.47,0,2.48-1.1,3.55-3.11,3.55h-.91v-7.02ZM51.56,99.39c4.22,0,6.97-1.9,6.97-6.86,0-4.32-2.63-6.3-6.86-6.3h-5.77v13.16h5.66Z"/>
        <polygon class="cls-2" points="60.3 99.39 60.3 86.23 71.02 86.23 71.02 89.3 64.61 89.3 64.61 91.19 70.04 91.19 70.04 94.25 64.61 94.25 64.61 96.32 71.29 96.32 71.29 99.39 60.3 99.39"/>
        <path class="cls-2" d="M77.53,89.3h2c1.01,0,1.73.44,1.73,1.38s-.7,1.23-2.04,1.23h-1.7v-2.61ZM78.84,94.8c2,0,2.3.58,2.3,2.29,0,1.16.1,2,.21,2.3h4.37v-.41c-.51,0-.46-.58-.46-2.29,0-2.65-.84-2.97-2.22-3.48,1.53-.43,2.21-1.71,2.21-3.21,0-2.56-1.44-3.76-5.81-3.76h-6.22v13.16h4.31v-4.59h1.31Z"/>
      </g>
    </g>
  </g>
</svg>