<?xml version="1.0" encoding="UTF-8"?>
<svg id="Layer_1" data-name="Layer 1" xmlns="http://www.w3.org/2000/svg" xmlns:xlink="http://www.w3.org/1999/xlink" viewBox="0 0 350 167.39">
  <defs>
    <style>
      .cls-1 {
        clip-path: url(#clippath-2);
      }

      .cls-2 {
        fill: #6d6e70;
      }

      .cls-2, .cls-3, .cls-4 {
        stroke-width: 0px;
      }

      .cls-5 {
        clip-path: url(#clippath-6);
      }

      .cls-3 {
        fill: none;
      }

      .cls-6 {
        clip-path: url(#clippath-7);
      }

      .cls-7 {
        clip-path: url(#clippath-1);
      }

      .cls-8 {
        clip-path: url(#clippath-4);
      }

      .cls-9 {
        opacity: .9;
      }

      .cls-4 {
        fill: #272525;
      }

      .cls-10 {
        opacity: .8;
      }

      .cls-11 {
        clip-path: url(#clippath);
      }

      .cls-12 {
        clip-path: url(#clippath-3);
      }

      .cls-13 {
        clip-path: url(#clippath-5);
      }
    </style>
    <clipPath id="clippath">
      <rect class="cls-3" width="350" height="167.39"/>
    </clipPath>
    <clipPath id="clippath-1">
      <rect class="cls-3" width="350" height="167.39"/>
    </clipPath>
    <clipPath id="clippath-2">
      <rect class="cls-3" width="350" height="167.39"/>
    </clipPath>
    <clipPath id="clippath-3">
      <rect class="cls-3" x="108.1" y=".03" width="56.52" height="69.62"/>
    </clipPath>
    <clipPath id="clippath-4">
      <rect class="cls-3" x="147.29" width="34.75" height="30.57"/>
    </clipPath>
    <clipPath id="clippath-5">
      <rect class="cls-3" x="108.12" y="39.4" width="34.19" height="30.25"/>
    </clipPath>
    <clipPath id="clippath-6">
      <rect class="cls-3" width="102.86" height="116.91"/>
    </clipPath>
    <clipPath id="clippath-7">
      <rect class="cls-3" x="69.6" width="33.21" height="29.02"/>
    </clipPath>
  </defs>
  <g id="Black_MC" data-name="Black MC">
    <g class="cls-11">
      <g class="cls-7">
        <polygon class="cls-4" points="98.99 92.27 98.89 92.27 88.69 117.73 84.43 117.73 74.24 92.77 74.14 92.77 74.14 117.73 66.84 117.73 66.84 79.59 75.51 79.59 86.56 105.56 97.62 79.59 106.29 79.59 106.29 117.73 98.99 117.73 98.99 92.27"/>
        <g class="cls-1">
          <path class="cls-4" d="M129.48,78.88c11.87,0,18.56,9.54,18.56,19.78s-6.69,19.78-18.56,19.78-18.56-9.54-18.56-19.78,6.69-19.78,18.56-19.78M129.48,85.67c-7.1,0-10.65,6.14-10.65,12.98s3.55,12.98,10.65,12.98,10.65-6.14,10.65-12.98-3.55-12.98-10.65-12.98"/>
          <path class="cls-4" d="M164.81,102.66h-4.46v15.06h-7.61v-38.14h14.25c8.01,0,12.58,5.02,12.58,11.36,0,4.01-2.18,9.23-7.1,10.7l8.88,16.08h-9.08l-7.45-15.06ZM165.42,96.48c5.22,0,6.54-2.79,6.54-5.22,0-2.74-1.32-5.17-6.8-5.17h-4.82v10.4h5.07Z"/>
          <polygon class="cls-4" points="192.59 86.38 182.55 86.38 182.55 79.59 210.24 79.59 210.24 86.38 200.2 86.38 200.2 117.73 192.59 117.73 192.59 86.38"/>
          <path class="cls-4" d="M230.46,97.19h17.6c-.3,14.15-8.11,21.25-18.61,21.25-11.31,0-18.56-9.54-18.56-19.78s7.25-19.78,18.56-19.78c12.53,0,15.98,7.81,17.4,11.87l-7.96.51c-1.37-3.35-4.11-5.58-9.43-5.58-5.98,0-10.65,4.87-10.65,12.98,0,6.85,4.31,12.98,11.16,12.98,6.14,0,8.98-4.36,9.64-7.96h-9.13v-6.49Z"/>
          <path class="cls-4" d="M272.58,109.77h-13.95l-2.48,7.96h-8.22l13.9-38.14h8.01l13.7,38.14h-8.37l-2.59-7.96ZM265.69,88.77h-.1l-4.82,14.81h9.79l-4.87-14.81Z"/>
          <path class="cls-4" d="M302.62,97.19h17.6c-.3,14.15-8.11,21.25-18.61,21.25-11.31,0-18.56-9.54-18.56-19.78s7.25-19.78,18.56-19.78c12.53,0,15.98,7.81,17.4,11.87l-7.96.51c-1.37-3.35-4.11-5.58-9.43-5.58-5.98,0-10.65,4.87-10.65,12.98,0,6.85,4.31,12.98,11.16,12.98,6.14,0,8.98-4.36,9.64-7.96h-9.13v-6.49Z"/>
          <polygon class="cls-4" points="325.65 79.59 350 79.59 350 86.38 333.26 86.38 333.26 95.06 349.54 95.06 349.54 101.85 333.26 101.85 333.26 110.93 350 110.93 350 117.73 325.65 117.73 325.65 79.59"/>
          <path class="cls-2" d="M147.3,0h-.04l.02.03.02-.03ZM182.04,0h0l-17.42,30.57,22.19,39.09h34.77L182.04,0"/>
          <g class="cls-9">
            <g class="cls-12">
              <polygon class="cls-4" points="147.28 .03 125.13 39.4 142.3 69.66 108.13 69.66 108.12 69.63 108.1 69.66 142.35 69.66 164.62 30.57 147.28 .03"/>
            </g>
          </g>
          <g class="cls-10">
            <g class="cls-8">
              <polygon class="cls-4" points="182.04 0 147.3 0 147.28 .03 164.62 30.57 182.04 0"/>
            </g>
          </g>
          <path class="cls-2" d="M102.81.09l-17.23,28.93,22.54,40.61,17.01-30.22L102.81.09ZM102.76,0h-.31S102.76,0,102.76,0"/>
          <g class="cls-10">
            <g class="cls-13">
              <polygon class="cls-4" points="125.13 39.4 108.12 69.63 108.13 69.65 142.3 69.65 125.13 39.4"/>
            </g>
          </g>
          <g class="cls-9">
            <g class="cls-5">
              <path class="cls-4" d="M102.45,0l-32.91.18L0,116.91l33.32-.19L85.57,29.02,69.6.25,102.45,0ZM102.86,0h-.11l.05.09.05-.09"/>
            </g>
          </g>
          <g class="cls-10">
            <g class="cls-6">
              <polyline class="cls-4" points="102.76 0 102.45 0 69.6 .25 85.57 29.02 102.81 .09 102.76 0"/>
            </g>
          </g>
          <path class="cls-4" d="M95.49,141.55c-1.22-4.91-6.03-8.21-11.4-8.21-8.92,0-12.97,7.14-12.97,15.1s4.05,15.1,12.97,15.1c6.23,0,10.94-4.31,11.8-10.69l5.02.61c-1.62,8.51-8.92,13.93-16.82,13.93-11.25,0-18.14-7.7-18.14-18.95s6.89-18.95,18.14-18.95c7.75,0,14.19,3.75,16.36,11.15l-4.96.91Z"/>
          <polygon class="cls-4" points="108.6 130.4 133.94 130.4 133.94 134.56 113.37 134.56 113.37 145.7 131.25 145.7 131.25 149.86 113.37 149.86 113.37 162.32 134.44 162.32 134.44 166.48 108.6 166.48 108.6 130.4"/>
          <polygon class="cls-4" points="141.69 130.4 146.5 130.4 165.6 158.87 165.7 158.87 165.7 130.4 170.16 130.4 170.16 166.48 165.4 166.48 146.25 138.05 146.14 138.05 146.14 166.48 141.69 166.48 141.69 130.4"/>
          <polygon class="cls-4" points="187.58 134.56 176.74 134.56 176.74 130.4 203.19 130.4 203.19 134.56 192.35 134.56 192.35 166.47 187.58 166.47 187.58 134.56"/>
          <polygon class="cls-4" points="209.77 130.4 235.1 130.4 235.1 134.56 214.53 134.56 214.53 145.7 232.42 145.7 232.42 149.86 214.53 149.86 214.53 162.32 235.61 162.32 235.61 166.48 209.77 166.48 209.77 130.4"/>
          <path class="cls-4" d="M242.85,130.4h16.31c5.67,0,11.6,2.18,11.6,10.39,0,4.61-2.08,9.07-8.36,10.08l9.93,15.6h-5.78l-9.73-15.3h-9.22v15.3h-4.76v-36.07ZM247.62,147.02h10.79c4.46,0,7.6-1.42,7.6-6.23s-3.14-6.23-7.6-6.23h-10.79v12.46Z"/>
        </g>
      </g>
    </g>
  </g>
</svg>