<?xml version="1.0" encoding="UTF-8"?>
<svg id="Layer_1" data-name="Layer 1" xmlns="http://www.w3.org/2000/svg" xmlns:xlink="http://www.w3.org/1999/xlink" viewBox="0 0 350 167.39">
  <defs>
    <style>
      .cls-1 {
        clip-path: url(#clippath-2);
      }

      .cls-2 {
        clip-path: url(#clippath-6);
      }

      .cls-3 {
        fill: none;
      }

      .cls-3, .cls-4 {
        stroke-width: 0px;
      }

      .cls-5 {
        clip-path: url(#clippath-7);
      }

      .cls-6 {
        clip-path: url(#clippath-1);
      }

      .cls-7 {
        clip-path: url(#clippath-4);
      }

      .cls-8 {
        opacity: .9;
      }

      .cls-9 {
        opacity: .8;
      }

      .cls-10 {
        clip-path: url(#clippath);
      }

      .cls-11 {
        clip-path: url(#clippath-3);
      }

      .cls-4 {
        fill: #fff;
      }

      .cls-12 {
        clip-path: url(#clippath-5);
      }
    </style>
    <clipPath id="clippath">
      <rect class="cls-3" width="350" height="167.39"/>
    </clipPath>
    <clipPath id="clippath-1">
      <rect class="cls-3" width="350" height="167.39"/>
    </clipPath>
    <clipPath id="clippath-2">
      <rect class="cls-3" width="350" height="167.39"/>
    </clipPath>
    <clipPath id="clippath-3">
      <rect class="cls-3" x="108.1" y=".03" width="56.52" height="69.62"/>
    </clipPath>
    <clipPath id="clippath-4">
      <rect class="cls-3" x="147.29" width="34.75" height="30.57"/>
    </clipPath>
    <clipPath id="clippath-5">
      <rect class="cls-3" x="108.12" y="39.4" width="34.19" height="30.25"/>
    </clipPath>
    <clipPath id="clippath-6">
      <rect class="cls-3" width="102.86" height="116.91"/>
    </clipPath>
    <clipPath id="clippath-7">
      <rect class="cls-3" x="69.6" width="33.21" height="29.02"/>
    </clipPath>
  </defs>
  <g id="White_Mc_Logo" data-name="White Mc Logo">
    <g class="cls-10">
      <g class="cls-6">
        <polygon class="cls-4" points="98.99 92.27 98.89 92.27 88.69 117.73 84.43 117.73 74.24 92.78 74.14 92.78 74.14 117.73 66.83 117.73 66.83 79.59 75.51 79.59 86.56 105.56 97.62 79.59 106.29 79.59 106.29 117.73 98.99 117.73 98.99 92.27"/>
        <g class="cls-1">
          <path class="cls-4" d="M129.48,78.88c11.87,0,18.56,9.54,18.56,19.78s-6.69,19.78-18.56,19.78-18.56-9.54-18.56-19.78,6.69-19.78,18.56-19.78M129.48,85.67c-7.1,0-10.65,6.14-10.65,12.98s3.55,12.98,10.65,12.98,10.65-6.14,10.65-12.98-3.55-12.98-10.65-12.98"/>
          <path class="cls-4" d="M164.81,102.66h-4.46v15.06h-7.61v-38.14h14.25c8.01,0,12.58,5.02,12.58,11.36,0,4.01-2.18,9.23-7.1,10.7l8.88,16.08h-9.08l-7.45-15.06ZM165.42,96.48c5.22,0,6.54-2.79,6.54-5.22,0-2.74-1.32-5.17-6.8-5.17h-4.82v10.4h5.07Z"/>
          <polygon class="cls-4" points="192.59 86.38 182.55 86.38 182.55 79.59 210.24 79.59 210.24 86.38 200.2 86.38 200.2 117.73 192.59 117.73 192.59 86.38"/>
          <path class="cls-4" d="M230.46,97.19h17.6c-.3,14.15-8.12,21.25-18.61,21.25-11.31,0-18.56-9.54-18.56-19.78s7.25-19.78,18.56-19.78c12.53,0,15.98,7.81,17.4,11.87l-7.96.51c-1.37-3.35-4.11-5.58-9.43-5.58-5.98,0-10.65,4.87-10.65,12.98,0,6.85,4.31,12.98,11.16,12.98,6.14,0,8.98-4.36,9.64-7.96h-9.13v-6.49Z"/>
          <path class="cls-4" d="M272.58,109.77h-13.95l-2.48,7.96h-8.22l13.9-38.14h8.01l13.7,38.14h-8.37l-2.59-7.96ZM265.69,88.77h-.1l-4.82,14.81h9.79l-4.87-14.81Z"/>
          <path class="cls-4" d="M302.62,97.19h17.6c-.3,14.15-8.12,21.25-18.61,21.25-11.31,0-18.56-9.54-18.56-19.78s7.25-19.78,18.56-19.78c12.53,0,15.98,7.81,17.4,11.87l-7.96.51c-1.37-3.35-4.11-5.58-9.43-5.58-5.98,0-10.65,4.87-10.65,12.98,0,6.85,4.31,12.98,11.16,12.98,6.14,0,8.98-4.36,9.64-7.96h-9.13v-6.49Z"/>
          <polygon class="cls-4" points="325.65 79.59 350 79.59 350 86.38 333.26 86.38 333.26 95.06 349.54 95.06 349.54 101.85 333.26 101.85 333.26 110.93 350 110.93 350 117.73 325.65 117.73 325.65 79.59"/>
          <path class="cls-4" d="M147.3,0h-.04l.02.03.02-.03ZM182.04,0h0l-17.42,30.57,22.19,39.09h34.77L182.04,0"/>
          <g class="cls-8">
            <g class="cls-11">
              <polygon class="cls-4" points="147.28 .03 125.13 39.4 142.3 69.65 108.13 69.65 108.12 69.63 108.1 69.65 142.35 69.65 164.62 30.57 147.28 .03"/>
            </g>
          </g>
          <g class="cls-9">
            <g class="cls-7">
              <polygon class="cls-4" points="182.04 0 147.3 0 147.28 .03 164.62 30.57 182.04 0"/>
            </g>
          </g>
          <path class="cls-4" d="M102.81.09l-17.23,28.93,22.54,40.61,17.01-30.22L102.81.09ZM102.76,0h-.31S102.76,0,102.76,0"/>
          <g class="cls-9">
            <g class="cls-12">
              <polygon class="cls-4" points="125.13 39.4 108.12 69.63 108.13 69.65 142.3 69.65 125.13 39.4"/>
            </g>
          </g>
          <g class="cls-8">
            <g class="cls-2">
              <path class="cls-4" d="M102.45,0l-32.91.18L0,116.91l33.32-.19L85.57,29.02,69.6.25,102.45,0ZM102.86,0h-.11l.05.09.05-.09"/>
            </g>
          </g>
          <g class="cls-9">
            <g class="cls-5">
              <polyline class="cls-4" points="102.76 0 102.45 0 69.6 .25 85.57 29.02 102.81 .09 102.76 0"/>
            </g>
          </g>
          <path class="cls-4" d="M95.48,141.55c-.3-1.22-.82-2.33-1.55-3.34-.73-1.01-1.6-1.88-2.61-2.61-1.01-.73-2.14-1.28-3.37-1.67-1.23-.39-2.53-.58-3.88-.58-2.23,0-4.16.42-5.8,1.24-1.64.83-2.99,1.93-4.05,3.32-1.06,1.39-1.85,2.99-2.36,4.81-.51,1.82-.76,3.73-.76,5.73s.25,3.9.76,5.72c.51,1.82,1.29,3.43,2.36,4.81,1.06,1.39,2.41,2.49,4.05,3.32,1.64.83,3.57,1.24,5.8,1.24,1.55,0,3.01-.25,4.36-.76,1.35-.51,2.54-1.23,3.57-2.18,1.03-.95,1.88-2.08,2.56-3.39.68-1.32,1.11-2.77,1.32-4.36l5.01.61c-.41,2.13-1.14,4.05-2.2,5.78-1.06,1.72-2.35,3.18-3.85,4.38-1.5,1.2-3.18,2.13-5.04,2.79-1.86.66-3.77.99-5.72.99-2.8,0-5.33-.46-7.57-1.37-2.25-.91-4.15-2.2-5.72-3.88-1.57-1.67-2.77-3.67-3.6-6-.83-2.33-1.24-4.9-1.24-7.7s.41-5.37,1.24-7.7c.83-2.33,2.03-4.33,3.6-6,1.57-1.67,3.48-2.96,5.72-3.88,2.25-.91,4.77-1.37,7.57-1.37,1.92,0,3.77.24,5.52.71,1.76.47,3.34,1.17,4.76,2.1,1.42.93,2.65,2.09,3.7,3.47,1.05,1.39,1.84,3.01,2.38,4.86l-4.96.91Z"/>
          <polygon class="cls-4" points="108.6 130.4 133.93 130.4 133.93 134.56 113.37 134.56 113.37 145.7 131.25 145.7 131.25 149.86 113.37 149.86 113.37 162.32 134.44 162.32 134.44 166.47 108.6 166.47 108.6 130.4"/>
          <polygon class="cls-4" points="141.69 130.4 146.5 130.4 165.6 158.88 165.7 158.88 165.7 130.4 170.16 130.4 170.16 166.47 165.39 166.47 146.25 138.06 146.14 138.06 146.14 166.47 141.69 166.47 141.69 130.4"/>
          <polygon class="cls-4" points="187.58 134.56 176.74 134.56 176.74 130.4 203.19 130.4 203.19 134.56 192.35 134.56 192.35 166.47 187.58 166.47 187.58 134.56"/>
          <polygon class="cls-4" points="209.77 130.4 235.1 130.4 235.1 134.56 214.53 134.56 214.53 145.7 232.42 145.7 232.42 149.86 214.53 149.86 214.53 162.32 235.61 162.32 235.61 166.47 209.77 166.47 209.77 130.4"/>
          <path class="cls-4" d="M242.85,130.4h16.31c1.42,0,2.82.16,4.21.48,1.38.32,2.63.87,3.72,1.65,1.1.78,1.98,1.83,2.66,3.17.68,1.33,1.01,3.03,1.01,5.09,0,1.15-.14,2.27-.43,3.37-.29,1.1-.75,2.1-1.39,3.01-.64.91-1.5,1.7-2.58,2.36-1.08.66-2.4,1.11-3.95,1.34l9.93,15.6h-5.77l-9.73-15.3h-9.22v15.3h-4.76v-36.07ZM247.61,147.02h10.79c1.12,0,2.14-.1,3.07-.3.93-.2,1.73-.54,2.41-1.01.67-.47,1.2-1.11,1.57-1.9.37-.79.56-1.8.56-3.01s-.19-2.17-.56-2.96c-.37-.79-.9-1.44-1.57-1.93-.68-.49-1.48-.84-2.41-1.04-.93-.2-1.95-.3-3.07-.3h-10.79v12.46Z"/>
        </g>
      </g>
    </g>
  </g>
</svg>